# xmcd
#
# Track frame offsets:
# 150
# 19050
# 39379
# 52279
# 65353
# 81513
# 97481
# 109420
# 132445
# 152282
# 170530
# 188013
# 205247
# 219740
# 237140
# 253791
# 268379
# 283640
# 299540
# 320648
#
# Disc length: 4451 seconds
#
# Revision: 0
# Processed by: cddbd v1.5PL3 Copyright (c) Steve Scherf et al.
# Submitted via: Audion 3.0.2 (http://www.panic.com/audion/)
#
DISCID=41116114
DTITLE=Good Whiskey Blues - From The White Blues (vol.17)
DYEAR=1900
DGENRE=
TTITLE0=Hard Goin' Up
TTITLE1=Natural Born Lover
TTITLE2=Tobacco Road
TTITLE3=My Way
TTITLE4=Switchboard Susan
TTITLE5=I Know She Didn't Want Me
TTITLE6=Do The Dog
TTITLE7=Outta Shape
TTITLE8=C.T.
TTITLE9=Dangerous
TTITLE10=Cold Cruel Heart
TTITLE11=Green Stuff
TTITLE12=Wee Babe Blues
TTITLE13=Saturday Night Shooy-out
TTITLE14=They Called It Rock
TTITLE15=Until My Babe Comes Along
TTITLE16=I'm In The Mood For You
TTITLE17=Bad Town
TTITLE18=Sweet Little Lisa
TTITLE19=Drinking Wine Spo-Dee-O-Dee
EXTD=
EXTT0=
EXTT1=
EXTT2=
EXTT3=
EXTT4=
EXTT5=
EXTT6=
EXTT7=
EXTT8=
EXTT9=
EXTT10=
EXTT11=
EXTT12=
EXTT13=
EXTT14=
EXTT15=
EXTT16=
EXTT17=
EXTT18=
EXTT19=
PLAYORDER=
